<?xml version="1.0" standalone="no"?>
<!DOCTYPE svg PUBLIC "-//W3C//DTD SVG 20010904//EN"
 "http://www.w3.org/TR/2001/REC-SVG-20010904/DTD/svg10.dtd">
<svg version="1.0" xmlns="http://www.w3.org/2000/svg"
 width="1024.000000pt" height="1024.000000pt" viewBox="0 0 1024.000000 1024.000000"
 preserveAspectRatio="xMidYMid meet">

<g transform="translate(0.000000,1024.000000) scale(0.100000,-0.100000)"
fill="#000000" stroke="none">
<path d="M4880 9414 c-25 -2 -101 -8 -170 -14 -472 -41 -965 -174 -1425 -387
-731 -337 -1382 -903 -1828 -1588 -552 -849 -780 -1870 -647 -2900 143 -1111
713 -2109 1619 -2833 568 -455 1252 -758 1977 -877 282 -46 343 -50 724 -50
322 0 384 3 530 23 558 76 1010 219 1491 474 947 499 1718 1388 2064 2379 244
701 310 1422 194 2149 -91 578 -328 1183 -652 1670 -321 482 -786 944 -1262
1252 -569 369 -1209 600 -1880 679 -161 19 -617 33 -735 23z m756 -193 c666
-87 1269 -313 1814 -682 1018 -688 1660 -1724 1814 -2929 104 -807 -40 -1646
-406 -2375 -322 -640 -804 -1189 -1403 -1597 -460 -314 -992 -536 -1540 -642
-232 -45 -416 -64 -690 -73 -1509 -44 -2913 736 -3711 2062 -226 376 -408 851
-493 1285 -121 618 -104 1260 49 1855 246 957 848 1817 1666 2381 580 399
1226 643 1909 718 215 24 211 24 530 21 234 -2 335 -7 461 -24z"/>
<path d="M4910 9144 c-25 -2 -101 -8 -170 -14 -773 -67 -1534 -372 -2157 -866
-831 -659 -1365 -1597 -1508 -2652 -44 -329 -40 -761 11 -1107 87 -588 297
-1141 622 -1635 391 -593 941 -1085 1574 -1408 785 -401 1681 -529 2578 -371
224 39 500 118 735 210 514 201 962 492 1374 894 656 640 1068 1461 1192 2380
26 195 36 611 20 820 -93 1174 -659 2209 -1601 2924 -592 450 -1276 721 -2030
806 -130 15 -547 27 -640 19z m608 -100 c782 -79 1487 -369 2112 -869 500
-399 921 -955 1165 -1535 151 -359 240 -701 292 -1120 20 -165 23 -638 5 -810
-85 -804 -392 -1536 -900 -2147 -217 -261 -436 -468 -714 -674 -567 -421
-1201 -670 -1918 -756 -197 -23 -653 -23 -871 0 -839 90 -1613 442 -2269 1030
-166 149 -438 462 -592 682 -311 446 -549 1024 -637 1550 -56 334 -75 700 -51
1003 119 1538 1130 2873 2590 3420 358 134 822 227 1230 246 124 5 406 -5 558
-20z"/>
<path d="M5055 7209 c-187 -156 -442 -301 -660 -376 -260 -89 -494 -126 -911
-145 l-271 -12 -7 -110 c-30 -520 -30 -658 0 -1039 27 -347 72 -583 170 -881
62 -188 105 -291 200 -476 97 -190 250 -428 265 -412 4 4 18 39 33 79 l25 72
-76 123 c-271 436 -403 848 -475 1488 -14 129 -15 826 -1 945 l8 70 180 7
c398 16 703 71 968 174 182 71 423 204 538 297 28 23 57 46 64 51 9 7 32 -6
76 -41 79 -63 296 -193 404 -243 118 -54 294 -116 427 -150 199 -50 541 -89
791 -90 l87 0 1 -37 c0 -21 3 -47 5 -58 11 -45 6 -757 -5 -880 -58 -629 -186
-1050 -457 -1501 -42 -71 -77 -135 -77 -142 0 -18 47 -162 54 -162 14 0 177
265 248 403 173 336 277 657 340 1057 30 187 40 289 53 570 10 219 9 300 -5
569 -10 173 -18 316 -20 317 -1 1 -96 5 -212 8 -609 20 -983 111 -1352 328
-83 48 -315 217 -327 237 -11 17 -16 14 -81 -40z"/>
<path d="M6526 6495 c-9 -14 -14 -29 -12 -34 3 -5 -1 -14 -9 -21 -17 -14 -20
-40 -5 -40 6 0 10 6 10 13 0 16 60 70 69 62 3 -4 -5 -25 -18 -48 -13 -23 -36
-65 -51 -93 -15 -28 -44 -81 -65 -118 -20 -37 -35 -69 -33 -71 6 -7 115 145
171 238 49 82 57 107 32 107 -8 0 -15 5 -15 11 0 5 -4 7 -10 4 -5 -3 -10 -1
-10 4 0 21 -38 11 -54 -14z"/>
<path d="M6320 6456 c0 -6 4 -17 9 -25 7 -11 10 -9 16 8 10 33 25 15 26 -32
l1 -42 12 40 c12 36 14 38 24 20 10 -18 11 -17 12 13 l0 33 -50 -2 c-28 -2
-50 -7 -50 -13z"/>
<path d="M5673 6387 c-22 -18 -37 -23 -68 -19 -33 3 -45 -1 -68 -22 -24 -22
-31 -24 -58 -14 -39 13 -94 -10 -111 -47 -8 -18 -19 -25 -38 -25 -38 0 -72
-40 -72 -84 0 -20 -4 -36 -9 -36 -13 0 -39 -55 -39 -82 0 -13 7 -34 16 -47 16
-22 15 -24 -22 -64 -22 -23 -39 -43 -40 -44 0 -2 -18 6 -39 17 -22 11 -48 20
-60 20 -38 -1 -103 -38 -119 -69 -22 -42 -20 -119 4 -159 11 -18 20 -46 20
-63 0 -47 29 -98 74 -131 23 -16 41 -34 40 -39 -1 -5 -2 -15 -2 -23 -2 -11
-11 -13 -36 -9 -25 4 -45 -1 -75 -18 -45 -25 -49 -37 -25 -75 19 -28 14 -115
-8 -141 -10 -12 -9 -18 7 -29 21 -16 146 -19 173 -5 16 8 17 -2 16 -112 0 -74
3 -128 10 -136 8 -11 8 -15 -1 -18 -7 -3 -13 -16 -13 -29 0 -21 3 -24 25 -18
19 5 25 2 25 -10 0 -20 16 -21 28 0 7 12 10 13 19 2 17 -21 26 -58 14 -58 -15
0 -14 -19 3 -36 16 -15 46 -19 46 -5 0 4 16 28 35 52 l34 44 -34 30 c-25 23
-33 37 -29 52 6 22 -26 50 -41 35 -3 -4 -6 -2 -5 3 1 6 2 18 1 29 -1 14 -4 16
-14 7 -17 -14 -38 5 -30 26 5 13 2 13 -15 4 -19 -10 -21 -9 -15 6 3 10 11 25
17 33 6 8 7 12 2 8 -16 -13 -37 22 -46 77 -8 49 -7 58 10 75 11 11 20 29 20
39 0 21 16 27 103 37 50 6 59 10 76 40 14 23 25 31 38 28 10 -3 38 5 62 18 98
52 109 171 21 240 -28 22 -29 26 -20 58 11 38 0 91 -25 127 -14 21 -14 23 7
34 13 7 29 21 36 31 10 14 21 18 42 13 31 -7 100 17 100 36 0 6 16 -3 37 -21
33 -29 41 -32 87 -27 28 2 59 8 68 11 14 7 16 1 15 -37 -1 -33 4 -54 21 -76
12 -17 22 -36 22 -43 0 -7 7 -22 15 -32 14 -19 15 -18 26 12 6 18 28 68 49
111 l38 78 -25 -5 c-24 -5 -25 -3 -21 30 3 25 0 34 -8 31 -7 -3 -20 10 -29 27
-9 18 -12 29 -6 26 5 -4 13 0 18 7 13 22 46 35 68 26 11 -4 14 -8 7 -8 -10 -1
-10 -6 -2 -21 6 -12 10 -29 8 -39 -2 -10 2 -18 7 -19 6 0 9 6 7 14 -2 8 1 14
7 14 5 0 25 23 45 50 20 28 50 59 66 69 32 19 28 30 -12 44 -11 4 -18 17 -18
30 0 27 -25 53 -55 59 -12 2 -21 13 -23 28 -5 32 -20 50 -43 50 -10 0 -36 18
-58 40 -32 33 -46 40 -78 40 -22 0 -44 -5 -50 -11 -9 -9 -20 -9 -44 0 -45 15
-54 14 -86 -12z m42 -156 c-8 -15 -32 -14 -41 1 -5 8 -2 9 9 5 9 -3 19 -2 23
4 3 6 8 8 11 5 3 -2 2 -9 -2 -15z m-434 -313 c24 -29 23 -35 -1 -43 -11 -4
-33 -17 -49 -31 -29 -24 -30 -24 -36 -4 -4 12 -1 28 6 38 22 28 52 62 57 62 2
0 12 -10 23 -22z m-206 -28 c0 -9 -11 -16 -27 -18 -20 -2 -28 1 -28 12 0 8 6
17 13 19 21 9 42 2 42 -13z m245 -54 c0 -13 -20 -26 -41 -26 -5 0 -9 9 -9 20
0 15 7 20 25 20 15 0 25 -6 25 -14z m-203 -113 c-3 -2 -16 -3 -29 0 l-23 4 23
8 c12 4 23 12 23 19 1 6 3 3 6 -7 3 -10 3 -21 0 -24z m263 -99 c0 -8 -10 -14
-24 -14 -34 0 -42 18 -14 29 27 10 38 6 38 -15z m-155 -75 c11 -16 1 -19 -13
-3 -7 8 -8 14 -3 14 5 0 13 -5 16 -11z m-225 -159 c0 -12 -28 -25 -36 -17 -9
9 6 27 22 27 8 0 14 -5 14 -10z m190 -422 c0 -4 -7 -8 -15 -8 -8 0 -15 4 -15
8 0 5 7 9 15 9 8 0 15 -4 15 -9z m58 -52 c1 -15 -1 -17 -7 -7 -11 17 -31 6
-32 -17 -1 -11 -4 -8 -9 8 -5 17 -8 19 -9 8 -1 -27 -28 -22 -33 6 -5 22 -2 24
42 23 39 0 46 -3 48 -21z"/>
<path d="M4322 6278 c-28 -35 -85 -97 -127 -138 -42 -41 -82 -86 -90 -100
l-13 -25 61 5 c98 9 157 52 197 142 19 44 40 178 27 178 -3 0 -28 -28 -55 -62z"/>
<path d="M6626 6265 c-43 -36 -88 -77 -99 -91 l-20 -26 24 7 c49 15 115 54
156 91 39 36 42 41 30 61 -13 23 -14 22 -91 -42z"/>
<path d="M6640 6161 c-15 -30 -7 -38 51 -50 73 -16 89 -14 89 9 0 25 -34 47
-87 56 -35 5 -43 3 -53 -15z"/>
<path d="M3956 6151 c-17 -19 -17 -21 17 -51 42 -36 87 -121 87 -163 l0 -28
-72 8 c-128 14 -197 9 -253 -20 -107 -54 -157 -138 -163 -272 -7 -141 41 -282
136 -407 l36 -48 339 0 c319 0 339 1 332 18 -4 9 -10 38 -12 65 -8 74 30 119
130 151 15 5 17 12 11 38 -4 18 -7 42 -8 53 -1 11 -10 36 -20 55 -38 70 -18
153 46 188 64 36 63 33 35 89 -54 105 -168 171 -281 161 -28 -3 -84 -19 -124
-37 -41 -18 -79 -30 -86 -28 -7 3 -16 28 -20 55 -11 85 -67 192 -101 192 -7 0
-20 -9 -29 -19z m-144 -348 c22 -19 23 -61 4 -129 -8 -27 -17 -61 -20 -76 -8
-35 -53 -88 -75 -88 -10 0 -28 12 -42 26 -20 22 -24 35 -24 92 0 78 29 140 80
172 37 24 53 25 77 3z"/>
<path d="M6168 5769 c24 -17 45 -29 48 -26 6 6 -66 57 -80 57 -6 0 9 -14 32
-31z"/>
<path d="M5385 5163 c-69 -13 -69 -13 -53 -30 9 -8 29 -16 46 -16 25 -2 29 -5
22 -22 -11 -29 -4 -55 20 -77 12 -11 19 -26 16 -34 -3 -7 2 -18 11 -22 9 -6
14 -16 10 -25 -5 -12 5 -11 46 8 29 12 60 25 70 29 14 4 16 10 8 23 -5 11 -6
24 0 34 6 12 4 16 -7 15 -12 -1 -17 9 -19 34 -1 19 0 29 2 23 3 -7 11 -13 19
-13 9 0 13 -4 9 -9 -8 -14 14 -24 28 -14 7 5 19 9 27 8 8 -1 23 -3 33 -3 10
-1 15 -6 12 -12 -3 -5 -1 -10 4 -10 6 0 10 -3 10 -7 -6 -37 4 -51 46 -68 58
-21 93 -67 102 -131 3 -27 8 -43 11 -36 2 6 10 12 18 12 9 0 12 -4 9 -10 -3
-5 0 -7 9 -4 16 6 10 34 -8 34 -6 0 -3 5 7 11 33 20 50 -11 22 -42 -14 -15
-14 -18 1 -33 16 -16 15 -18 -4 -23 -25 -6 -36 -41 -19 -62 8 -10 8 -13 1 -8
-15 9 -38 -19 -28 -34 5 -8 3 -9 -5 -5 -7 5 -10 13 -8 20 2 6 -5 11 -17 12
-16 1 -27 -11 -44 -45 -24 -50 -28 -71 -12 -71 14 0 32 -48 32 -82 -1 -25 3
-27 69 -38 38 -7 81 -9 95 -6 19 5 24 3 18 -5 -4 -7 -3 -9 4 -5 6 3 9 15 7 26
-2 11 0 22 6 25 5 4 9 2 9 -3 0 -6 8 -9 18 -8 11 1 16 -5 14 -16 -2 -12 2 -16
13 -12 18 7 19 16 4 31 -9 9 -7 11 7 9 24 -4 55 15 46 29 -3 5 2 4 11 -4 18
-14 13 -35 -6 -25 -7 3 -1 -4 12 -15 15 -14 18 -21 9 -21 -8 0 -19 5 -26 12
-9 9 -12 8 -12 -6 0 -10 4 -14 12 -10 8 5 9 2 5 -9 -7 -19 1 -47 13 -47 5 0 7
11 5 25 -1 16 3 25 11 25 8 0 14 5 14 10 0 6 5 10 11 10 8 0 8 -4 0 -14 -6 -8
-11 -18 -9 -22 4 -17 -32 -74 -47 -74 -8 0 -15 -8 -15 -18 0 -10 -5 -23 -12
-30 -15 -15 1 -21 76 -24 l59 -3 22 -64 21 -64 70 77 c70 77 109 135 97 145
-3 3 -8 0 -10 -7 -3 -6 -9 -10 -14 -7 -5 4 -4 13 2 23 14 22 -4 72 -26 72 -8
0 -15 4 -15 9 0 5 13 7 30 6 26 -2 28 0 20 16 -7 13 -6 22 6 33 8 9 11 16 6
16 -6 0 -12 7 -16 15 -4 11 1 14 19 13 13 -1 22 -5 20 -9 -3 -3 4 -14 15 -24
18 -16 20 -16 26 -2 3 9 3 22 -1 29 -4 7 3 2 14 -11 12 -13 23 -22 24 -20 3 5
26 55 43 94 17 41 39 117 37 133 0 6 3 12 8 12 5 0 9 7 9 15 0 18 -16 20 -23
3 -3 -7 -6 -3 -6 10 -1 12 -7 22 -16 22 -8 0 -15 6 -15 13 0 16 -51 71 -70 75
-8 2 -18 8 -21 14 -4 6 -25 11 -47 12 -35 1 -72 15 -46 17 5 0 17 2 27 4 9 2
17 -2 17 -8 0 -8 3 -8 8 -2 4 6 29 11 56 12 39 1 53 6 67 24 18 24 34 20 34
-8 0 -22 21 -28 28 -8 4 8 1 15 -6 15 -8 0 -7 4 3 11 13 9 12 10 -2 5 -10 -3
-20 -1 -23 4 -8 13 -45 13 -45 0 0 -7 -8 -6 -22 1 -13 7 -24 11 -26 10 -1 -1
-9 5 -17 13 -12 12 -12 15 5 19 14 4 18 0 15 -14 -2 -11 0 -17 6 -14 5 4 9 11
9 17 0 6 8 17 18 24 16 13 15 16 -11 37 -18 15 -23 24 -13 24 8 0 18 -7 21
-16 5 -13 7 -13 15 -1 5 8 12 11 17 7 4 -5 1 -12 -7 -17 -13 -8 -12 -10 3 -10
9 0 26 -9 37 -20 20 -20 46 -28 36 -12 -3 5 1 9 9 9 8 0 16 -5 16 -11 1 -6 2
-15 4 -21 1 -5 3 -23 3 -39 3 -42 9 -30 25 49 15 73 14 90 -8 81 -15 -6 -18
43 -3 62 9 10 -63 12 -363 10 -293 -2 -373 -6 -371 -15 3 -16 -55 -18 -60 -3
-5 15 -358 27 -358 12 0 -5 -8 -9 -17 -7 -35 7 -118 12 -138 8z m191 -17 c8
-9 10 -17 5 -21 -6 -3 -15 4 -21 15 -12 23 -5 26 16 6z m898 -11 c-6 -16 -24
-21 -24 -7 0 11 11 22 21 22 5 0 6 -7 3 -15z m-78 -7 c4 -7 3 -8 -4 -4 -14 8
-16 -13 -4 -32 6 -9 13 -7 29 8 17 15 22 16 26 5 4 -8 -5 -17 -23 -23 -24 -9
-31 -7 -51 14 -12 13 -19 27 -16 31 4 3 7 0 7 -8 1 -10 3 -9 11 4 12 20 15 21
25 5z m-316 -13 c0 5 5 4 12 -3 13 -13 32 -16 24 -4 -2 4 8 9 24 10 27 2 53
-13 27 -16 -59 -6 -78 -10 -84 -15 -10 -11 -23 3 -23 26 0 18 2 19 10 7 5 -8
10 -11 10 -5z m-71 -4 c18 -11 6 -30 -17 -26 -9 2 -23 4 -30 4 -7 1 -10 6 -7
11 5 8 12 7 23 -2 13 -11 15 -10 9 5 -7 19 0 22 22 8z m231 -22 c0 -5 -4 -9
-8 -9 -5 0 -9 7 -9 15 0 8 4 12 9 9 4 -3 8 -9 8 -15z m-205 -9 c-10 -11 -23
-20 -29 -20 -6 1 0 10 13 20 30 26 39 26 16 0z m435 -16 c0 -8 -4 -12 -10 -9
-5 3 -10 10 -10 16 0 5 5 9 10 9 6 0 10 -7 10 -16z m-246 -9 c-4 -8 -13 -15
-22 -15 -13 0 -12 3 4 15 24 18 25 18 18 0z m-234 -9 c0 -2 -7 -7 -16 -10 -8
-3 -12 -2 -9 4 6 10 25 14 25 6z m98 -21 c-3 -3 -9 2 -12 12 -6 14 -5 15 5 6
7 -7 10 -15 7 -18z m43 8 c13 -16 12 -17 -3 -4 -10 7 -18 15 -18 17 0 8 8 3
21 -13z m-64 -18 c0 -5 -15 -11 -34 -11 -18 -1 -33 3 -33 8 0 5 4 7 9 3 5 -3
12 -2 15 3 7 11 43 9 43 -3z m-102 -5 c-3 -5 -10 -10 -16 -10 -5 0 -9 5 -9 10
0 6 7 10 16 10 8 0 12 -4 9 -10z m155 -11 c0 -11 -4 -18 -9 -14 -6 3 -15 -4
-21 -15 -12 -23 -32 -18 -23 6 3 8 8 12 11 9 3 -2 11 4 19 15 18 25 23 25 23
-1z m-110 -19 c0 -5 -5 -10 -11 -10 -5 0 -7 5 -4 10 3 6 8 10 11 10 2 0 4 -4
4 -10z m444 2 c2 -4 -5 -9 -17 -9 -17 -2 -19 0 -7 7 18 12 18 12 24 2z m-434
-46 c-11 -5 -20 -13 -20 -18 0 -11 -37 -10 -45 2 -3 6 0 11 7 11 7 1 18 2 23
4 6 1 16 3 23 3 6 1 12 10 12 20 0 14 2 15 10 2 7 -11 4 -17 -10 -24z m88 9
c-2 -1 -14 -8 -28 -15 -25 -13 -25 -13 -6 8 10 12 23 19 28 16 5 -3 8 -7 6 -9z
m42 -6 c0 -6 -4 -7 -10 -4 -5 3 -10 11 -10 16 0 6 5 7 10 4 6 -3 10 -11 10
-16z m80 11 c0 -5 -2 -10 -4 -10 -3 0 -8 5 -11 10 -3 6 -1 10 4 10 6 0 11 -4
11 -10z m-310 -27 c0 -7 -9 -13 -19 -13 -23 0 -37 16 -19 22 24 8 38 5 38 -9z
m340 -69 c0 -8 -5 -12 -10 -9 -6 4 -8 11 -5 16 9 14 15 11 15 -7z m64 -5 c-3
-5 -10 -7 -15 -3 -5 3 -7 10 -3 15 3 5 10 7 15 3 5 -3 7 -10 3 -15z m56 -26
c0 -13 -3 -13 -15 -3 -8 7 -12 16 -9 21 8 13 24 1 24 -18z m70 23 c0 -2 -7 -6
-15 -10 -8 -3 -15 -1 -15 4 0 6 7 10 15 10 8 0 15 -2 15 -4z m68 -16 c27 -25
27 -29 5 -25 -10 1 -25 -4 -35 -12 -12 -11 -18 -11 -24 -2 -4 7 -3 10 3 6 6
-4 16 0 22 7 8 10 9 16 1 21 -12 7 -14 25 -2 25 5 0 18 -9 30 -20z m-121 -36
c-3 -3 -12 -4 -19 -1 -8 3 -5 6 6 6 11 1 17 -2 13 -5z m93 -34 c0 -5 -2 -10
-4 -10 -3 0 -8 5 -11 10 -3 6 -1 10 4 10 6 0 11 -4 11 -10z m-123 -15 c0 -8
-4 -15 -9 -15 -10 0 -11 14 -1 23 9 10 10 9 10 -8z m-27 -5 c0 -5 -8 -10 -17
-10 -15 0 -16 2 -3 10 19 12 20 12 20 0z m100 -20 c0 -5 -5 -10 -11 -10 -5 0
-7 5 -4 10 3 6 8 10 11 10 2 0 4 -4 4 -10z m-225 -70 c3 -5 1 -10 -4 -10 -6 0
-11 5 -11 10 0 6 2 10 4 10 3 0 8 -4 11 -10z m103 -16 c-7 -14 -16 -20 -26
-17 -13 6 -13 8 1 18 9 7 15 14 12 17 -3 2 1 5 9 5 11 0 12 -5 4 -23z m-148
-4 c0 -5 -5 -10 -11 -10 -5 0 -7 5 -4 10 3 6 8 10 11 10 2 0 4 -4 4 -10z m-70
-51 c0 -6 -4 -7 -10 -4 -5 3 -10 11 -10 16 0 6 5 7 10 4 6 -3 10 -11 10 -16z
m213 -6 c9 -9 -13 -34 -24 -27 -14 8 -11 34 4 34 8 0 17 -3 20 -7z m-266 -25
c-3 -8 -6 -5 -6 6 -1 11 2 17 5 13 3 -3 4 -12 1 -19z m123 7 c0 -8 -4 -15 -8
-15 -5 0 -9 7 -9 15 0 8 4 15 9 15 4 0 8 -7 8 -15z m106 -2 c18 -23 17 -33 -1
-33 -9 0 -12 6 -9 15 4 9 0 15 -10 15 -9 0 -16 5 -16 10 0 16 22 12 36 -7z
m-160 -29 c-22 -21 -39 -17 -18 4 9 11 20 17 25 15 4 -2 1 -11 -7 -19z m-76
-4 c-7 -4 -9 -14 -6 -21 4 -8 1 -5 -8 5 -18 22 -12 38 10 29 12 -4 12 -8 4
-13z m205 -10 c-3 -5 -13 -6 -21 -3 -12 4 -13 8 -3 14 15 9 32 2 24 -11z
m-266 -10 c-6 -5 -9 -15 -6 -23 3 -9 -1 -21 -9 -28 -12 -10 -13 -9 -8 4 3 9
-2 24 -11 34 -17 16 -16 17 1 24 25 8 51 0 33 -11z m206 -38 c-3 -3 -11 0 -18
7 -9 10 -8 11 6 5 10 -3 15 -9 12 -12z m35 3 c0 -8 -4 -15 -8 -15 -5 0 -9 7
-9 15 0 8 4 15 9 15 4 0 8 -7 8 -15z m180 -69 c0 -2 -6 -9 -13 -15 -10 -8 -14
-7 -14 4 0 8 6 15 14 15 7 0 13 -2 13 -4z m-195 -15 c3 -6 -3 -9 -14 -8 -11 0
-17 5 -15 9 7 11 22 10 29 -1z m131 -132 c3 -6 -1 -18 -10 -27 -14 -14 -18
-15 -25 -3 -5 8 -7 20 -4 28 6 16 29 17 39 2z"/>
<path d="M6490 4836 c0 -2 8 -10 18 -17 15 -13 16 -12 3 4 -13 16 -21 21 -21
13z"/>
<path d="M4590 4985 c0 -3 63 -67 140 -143 77 -75 140 -143 140 -150 0 -39
-37 -17 -154 93 -135 127 -164 150 -174 141 -3 -4 56 -69 132 -145 98 -98 137
-144 133 -155 -4 -9 -10 -16 -14 -16 -4 1 -73 61 -152 135 -80 74 -149 131
-154 128 -5 -3 55 -70 134 -149 121 -122 140 -146 129 -159 -7 -8 -14 -15 -17
-15 -2 0 -69 61 -149 136 -80 75 -148 134 -151 130 -4 -3 5 -19 19 -34 13 -15
82 -91 152 -169 138 -154 171 -176 255 -173 25 1 51 1 57 1 6 -1 63 -58 125
-128 63 -71 183 -201 267 -290 140 -149 156 -163 188 -163 67 0 97 69 54 123
-12 15 -90 87 -175 162 -85 74 -156 139 -159 143 -3 5 28 41 69 82 l74 73 93
1 c110 1 137 13 215 92 70 72 123 182 130 267 5 60 4 66 -25 98 -30 33 -32 34
-109 34 -67 0 -87 -5 -145 -33 -162 -79 -250 -218 -220 -350 l10 -43 -80 -69
c-45 -39 -86 -70 -92 -70 -9 0 -96 70 -150 121 -5 4 -8 38 -7 74 3 89 -19 124
-142 231 -188 164 -247 210 -247 189z"/>
<path d="M6587 4916 c-3 -8 1 -22 9 -33 14 -17 14 -17 5 4 -8 16 -8 22 1 25 8
3 9 6 1 11 -6 4 -13 1 -16 -7z"/>
<path d="M6530 4911 c0 -5 5 -13 10 -16 6 -3 10 -2 10 4 0 5 -4 13 -10 16 -5
3 -10 2 -10 -4z"/>
<path d="M6577 4838 c9 -10 18 -18 20 -18 1 0 3 8 3 18 0 11 -7 18 -20 18 -18
0 -18 -2 -3 -18z"/>
<path d="M5130 4540 c0 -137 -3 -134 77 -59 49 46 49 46 42 95 -3 27 -7 40 -8
29 -1 -16 -5 -13 -16 13 -8 17 -20 32 -27 33 -7 0 -25 3 -40 5 l-28 5 0 -121z"/>
<path d="M4925 4173 c-182 -159 -225 -205 -225 -241 0 -42 30 -72 74 -72 30 0
48 15 186 160 l152 160 -33 39 c-19 22 -38 40 -44 40 -5 0 -55 -38 -110 -86z"/>
<path d="M3976 3997 c-124 -353 -234 -661 -241 -679 -7 -17 26 -18 603 -18
l610 0 57 -30 c46 -24 69 -30 120 -30 51 0 74 6 120 30 l57 30 610 0 c577 0
610 1 603 18 -8 19 -118 335 -234 672 l-78 225 -33 3 c-28 3 -32 1 -25 -15 19
-47 275 -819 275 -831 0 -10 -113 -12 -570 -12 l-569 1 -41 -30 c-74 -53 -172
-51 -238 4 l-30 25 -571 0 c-469 0 -571 2 -571 13 0 14 202 610 258 765 l31
82 -32 0 -32 0 -79 -223z"/>
<path d="M4270 3252 c0 -5 28 -31 63 -58 210 -167 448 -313 702 -429 l79 -36
46 17 c72 28 316 155 420 220 115 71 241 159 335 233 l70 56 -118 3 -118 3
-42 -35 c-72 -58 -306 -200 -447 -271 -158 -79 -124 -83 -349 35 -138 73 -403
239 -417 261 -7 11 -224 12 -224 1z"/>
</g>
</svg>
